<?xml version="1.0" encoding="UTF-8" standalone="no"?>
<!DOCTYPE svg PUBLIC "-//W3C//DTD SVG 20010904//EN"
              "http://www.w3.org/TR/2001/REC-SVG-20010904/DTD/svg10.dtd">

<svg xmlns="http://www.w3.org/2000/svg"
     width="290.288mm" height="152.686mm"
     viewBox="0 0 1097 577">
  <path id="load_docks"
        fill="blue" stroke="gold" stroke-width="1"
        d="M 490.00,6.00
           C 490.00,6.00 521.00,6.00 521.00,6.00
             521.00,6.00 521.00,76.00 521.00,76.00
             521.00,76.00 631.00,76.00 631.00,76.00
             631.00,76.00 631.00,267.00 631.00,267.00
             631.00,267.00 258.00,267.00 258.00,267.00
             258.00,267.00 258.00,76.00 258.00,76.00
             258.00,76.00 490.00,76.00 490.00,76.00
             490.00,76.00 490.00,6.00 490.00,6.00 Z
           M 901.00,6.00
           C 901.00,6.00 932.00,6.00 932.00,6.00
             932.00,6.00 932.00,76.00 932.00,76.00
             932.00,76.00 1042.00,76.00 1042.00,76.00
             1042.00,76.00 1042.00,267.00 1042.00,267.00
             1042.00,267.00 669.00,267.00 669.00,267.00
             669.00,267.00 669.00,76.00 669.00,76.00
             669.00,76.00 901.00,76.00 901.00,76.00
             901.00,76.00 901.00,6.00 901.00,6.00 Z
           M 603.00,494.24
           C 605.93,494.06 608.04,493.95 611.00,494.24
             652.46,494.97 663.43,553.78 626.00,570.49
             620.09,573.12 614.43,574.13 608.00,573.99
             578.74,573.31 561.71,541.53 574.13,516.00
             580.17,503.59 589.91,497.37 603.00,494.24 Z
           M 867.00,515.00
           C 867.00,515.00 883.00,515.00 883.00,515.00
             883.00,515.00 883.00,540.00 883.00,540.00
             883.00,540.00 886.00,540.00 886.00,540.00
             886.00,540.00 886.00,574.00 886.00,574.00
             886.00,574.00 775.00,574.00 775.00,574.00
             775.00,574.00 775.00,540.00 775.00,540.00
             775.00,540.00 867.00,540.00 867.00,540.00
             867.00,540.00 867.00,515.00 867.00,515.00 Z
           M 359.00,538.00
           C 359.00,538.00 498.00,538.00 498.00,538.00
             498.00,538.00 498.00,574.00 498.00,574.00
             498.00,574.00 359.00,574.00 359.00,574.00
             359.00,574.00 359.00,538.00 359.00,538.00 Z" />
	<path id="house_barn"
        fill="black" stroke="black" stroke-width="1"
        d="M 9.00,300.00
           C 9.00,300.00 278.00,300.00 278.00,300.00
             278.00,300.00 278.00,436.00 278.00,436.00
             278.00,436.00 9.00,436.00 9.00,436.00
             9.00,436.00 9.00,300.00 9.00,300.00 Z
           M 928.00,317.00
           C 928.00,317.00 1084.00,317.00 1084.00,317.00
             1084.00,317.00 1084.00,474.00 1084.00,474.00
             1084.00,474.00 928.00,474.00 928.00,474.00
             928.00,474.00 928.00,317.00 928.00,317.00 Z
           M 752.00,491.47
           C 762.61,489.99 771.93,493.01 778.36,502.00
             789.22,517.18 780.35,539.07 762.00,542.53
             735.54,547.53 720.05,514.64 740.02,497.21
             743.83,493.88 747.18,492.61 752.00,491.47 Z" />
</svg>
