<?xml version="1.0" encoding="UTF-8" standalone="no"?>
<!DOCTYPE svg PUBLIC "-//W3C//DTD SVG 20010904//EN"
              "http://www.w3.org/TR/2001/REC-SVG-20010904/DTD/svg10.dtd">

<svg xmlns="http://www.w3.org/2000/svg"
     width="68.272mm" height="127.812mm"
     viewBox="0 0 258 483">
  <path id="un-load"
        fill="blue" stroke="gold" stroke-width="1"
        d="M 43.00,55.00
           C 43.00,55.00 150.00,55.00 150.00,55.00
             150.00,55.00 150.00,264.00 150.00,264.00
             150.00,264.00 43.00,264.00 43.00,264.00
             43.00,264.00 43.00,133.00 43.00,133.00
             43.00,133.00 6.00,133.00 6.00,133.00
             6.00,133.00 6.00,117.00 6.00,117.00
             6.00,117.00 43.00,117.00 43.00,117.00
             43.00,117.00 43.00,55.00 43.00,55.00 Z
           M 219.00,238.00
           C 219.00,238.00 237.00,238.00 237.00,238.00
             237.00,238.00 237.00,470.00 237.00,470.00
             237.00,470.00 219.00,470.00 219.00,470.00
             219.00,470.00 219.00,456.00 219.00,456.00
             219.00,456.00 142.00,456.00 142.00,456.00
             142.00,456.00 142.00,360.00 142.00,360.00
             142.00,360.00 219.00,360.00 219.00,360.00
             219.00,360.00 219.00,238.00 219.00,238.00 Z
           M 8.00,307.00
           C 8.00,307.00 123.00,307.00 123.00,307.00
             123.00,307.00 123.00,420.00 123.00,420.00
             123.00,420.00 29.00,420.00 29.00,420.00
             29.00,420.00 29.00,434.00 29.00,434.00
             29.00,434.00 8.00,434.00 8.00,434.00
             8.00,434.00 8.00,307.00 8.00,307.00 Z" />
	<path id="factory"
        fill="black" stroke="gold" stroke-width="1"
        d="M 149.00,13.00
           C 149.00,13.00 225.00,13.00 225.00,13.00
             225.00,13.00 225.00,238.00 225.00,238.00
             225.00,238.00 219.00,238.00 219.00,238.00
             219.00,238.00 219.00,360.00 219.00,360.00
             219.00,360.00 149.00,360.00 149.00,360.00
             149.00,360.00 149.00,342.00 149.00,342.00
             149.00,342.00 123.00,342.00 123.00,342.00
             123.00,342.00 123.00,307.00 123.00,307.00
             123.00,307.00 102.00,307.00 102.00,307.00
             102.00,307.00 102.00,264.00 102.00,264.00
             102.00,264.00 150.00,264.00 150.00,264.00
             150.00,264.00 150.00,55.00 150.00,55.00
             150.00,55.00 72.00,55.00 72.00,55.00
             72.00,55.00 72.00,34.00 72.00,34.00
             72.00,34.00 149.00,34.00 149.00,34.00
             149.00,34.00 149.00,13.00 149.00,13.00 Z
           M 8.00,291.00
           C 8.00,291.00 87.00,291.00 87.00,291.00
             87.00,291.00 87.00,307.00 87.00,307.00
             87.00,307.00 8.00,307.00 8.00,307.00
             8.00,307.00 8.00,291.00 8.00,291.00 Z" />
</svg>
