<?xml version="1.0" encoding="UTF-8" standalone="no"?>
<!DOCTYPE svg PUBLIC "-//W3C//DTD SVG 20010904//EN"
              "http://www.w3.org/TR/2001/REC-SVG-20010904/DTD/svg10.dtd">

<svg xmlns="http://www.w3.org/2000/svg"
     width="4.98889in" height="3.27778in"
     viewBox="0 0 449 295">
  <path id="un-load"
        fill="blue" stroke="gold" stroke-width="1"
        d="M 134.00,262.00
           C 134.00,262.00 164.00,262.00 164.00,262.00
             164.00,262.00 164.00,282.00 164.00,282.00
             164.00,282.00 134.00,282.00 134.00,282.00
             134.00,282.00 134.00,262.00 134.00,262.00 Z" />
	<path id="water_well"
        fill="black" stroke="gold" stroke-width="1"
        d="M 16.00,16.00
           C 16.00,16.00 282.00,16.00 282.00,16.00
             282.00,16.00 282.00,282.00 282.00,282.00
             282.00,282.00 164.00,282.00 164.00,282.00
             164.00,282.00 164.00,262.00 164.00,262.00
             164.00,262.00 134.00,262.00 134.00,262.00
             134.00,262.00 134.00,282.00 134.00,282.00
             134.00,282.00 16.00,282.00 16.00,282.00
             16.00,282.00 16.00,16.00 16.00,16.00 Z
           M 294.00,194.00
           C 294.00,194.00 294.00,120.00 294.00,120.00
             294.00,120.00 294.00,104.00 294.00,104.00
             294.00,104.00 295.60,98.02 295.60,98.02
             295.60,98.02 303.00,97.00 303.00,97.00
             303.00,97.00 432.00,97.00 432.00,97.00
             432.00,97.00 432.00,194.00 432.00,194.00
             432.00,194.00 294.00,194.00 294.00,194.00 Z" />
</svg>
