<?xml version="1.0" encoding="UTF-8" standalone="no"?>
<!DOCTYPE svg PUBLIC "-//W3C//DTD SVG 20010904//EN"
              "http://www.w3.org/TR/2001/REC-SVG-20010904/DTD/svg10.dtd">

<svg xmlns="http://www.w3.org/2000/svg"
     width="269.383mm" height="184.176mm"
     viewBox="0 0 1018 696">
  <path id="un-load"
        fill="blue" stroke="gold" stroke-width="1"
        d="M 51.00,4.00
           C 51.00,4.00 77.00,4.00 77.00,4.00
             77.00,4.00 77.00,49.00 77.00,49.00
             77.00,49.00 51.00,49.00 51.00,49.00
             51.00,49.00 51.00,4.00 51.00,4.00 Z
           M 831.00,4.00
           C 831.00,4.00 979.00,4.00 979.00,4.00
             979.00,4.00 979.00,14.00 979.00,14.00
             979.00,14.00 831.00,14.00 831.00,14.00
             831.00,14.00 831.00,4.00 831.00,4.00 Z
           M 565.00,591.44
           C 577.22,589.87 589.88,592.54 600.00,599.79
             621.89,615.46 626.75,647.67 610.32,669.00
             607.00,673.31 602.63,677.66 598.00,680.53
             592.26,684.10 585.67,686.51 579.00,687.56
             573.64,688.41 567.30,688.13 562.00,686.99
             521.70,678.27 510.79,627.10 542.00,601.33
             548.58,595.89 556.72,592.99 565.00,591.44 Z
           M 10.00,647.00
           C 10.00,647.00 168.00,647.00 168.00,647.00
             168.00,647.00 168.00,689.00 168.00,689.00
             168.00,689.00 10.00,689.00 10.00,689.00
             10.00,689.00 10.00,647.00 10.00,647.00 Z" />
	<path id="barn-yard"
        fill="black" stroke="gold" stroke-width="1"
        d="M 77.00,4.00
           C 77.00,4.00 237.00,4.00 237.00,4.00
             237.00,4.00 237.00,163.00 237.00,163.00
             237.00,163.00 44.00,163.00 44.00,163.00
             44.00,163.00 44.00,49.00 44.00,49.00
             44.00,49.00 77.00,49.00 77.00,49.00
             77.00,49.00 77.00,4.00 77.00,4.00 Z
           M 549.00,4.00
           C 549.00,4.00 717.00,4.00 717.00,4.00
             717.00,4.00 717.00,291.00 717.00,291.00
             717.00,291.00 526.00,291.00 526.00,291.00
             526.00,291.00 526.00,49.00 526.00,49.00
             526.00,49.00 549.00,49.00 549.00,49.00
             549.00,49.00 549.00,4.00 549.00,4.00 Z
           M 831.00,14.00
           C 831.00,14.00 979.00,14.00 979.00,14.00
             979.00,14.00 979.00,114.00 979.00,114.00
             979.00,114.00 1005.00,114.00 1005.00,114.00
             1005.00,114.00 1005.00,173.00 1005.00,173.00
             1005.00,173.00 771.00,173.00 771.00,173.00
             771.00,173.00 771.00,131.00 771.00,131.00
             771.00,131.00 785.00,131.00 785.00,131.00
             785.00,131.00 785.00,102.00 785.00,102.00
             785.00,102.00 734.00,102.00 734.00,102.00
             734.00,102.00 734.00,40.00 734.00,40.00
             734.00,40.00 800.00,40.00 800.00,40.00
             800.00,40.00 800.00,47.00 800.00,47.00
             800.00,47.00 831.00,47.00 831.00,47.00
             831.00,47.00 831.00,14.00 831.00,14.00 Z
           M 283.00,49.00
           C 283.00,49.00 476.00,49.00 476.00,49.00
             476.00,49.00 476.00,290.00 476.00,290.00
             476.00,290.00 283.00,290.00 283.00,290.00
             283.00,290.00 283.00,49.00 283.00,49.00 Z
           M 218.00,316.00
           C 218.00,316.00 473.00,316.00 473.00,316.00
             473.00,316.00 473.00,580.00 473.00,580.00
             473.00,580.00 218.00,580.00 218.00,580.00
             218.00,580.00 218.00,316.00 218.00,316.00 Z" />
</svg>
